<svg width="249" height="63" viewBox="0 0 249 63" fill="none" xmlns="http://www.w3.org/2000/svg">
<path d="M3.71094 5.68359H10.4258C12.3867 5.68359 14.0898 5.89453 15.5352 6.31641C16.9805 6.73828 18.1758 7.34375 19.1211 8.13281C20.0742 8.91406 20.7812 9.86719 21.2422 10.9922C21.7109 12.1094 21.9453 13.3672 21.9453 14.7656C21.9453 16.0938 21.7148 17.3242 21.2539 18.457C20.793 19.582 20.0898 20.5586 19.1445 21.3867C18.1992 22.207 17.0039 22.8516 15.5586 23.3203C14.1133 23.7812 12.4102 24.0117 10.4492 24.0117L3.71094 24V5.68359ZM11.3398 20.7891C12.4492 20.7891 13.4219 20.6484 14.2578 20.3672C15.0938 20.0781 15.7891 19.6719 16.3438 19.1484C16.9062 18.625 17.3281 17.9922 17.6094 17.25C17.8906 16.5078 18.0312 15.6797 18.0312 14.7656C18.0312 13.8672 17.8906 13.0586 17.6094 12.3398C17.3281 11.6133 16.9062 11 16.3438 10.5C15.7891 9.99219 15.0938 9.60156 14.2578 9.32812C13.4219 9.05469 12.4492 8.91797 11.3398 8.91797H7.42578V20.7891H11.3398ZM31.918 5.68359H35.8555L44.7148 24H40.8125L39.3477 20.918H28.6484L27.2305 24H23.3164L31.918 5.68359ZM37.8828 17.8594L33.9219 9.53906L30.0664 17.8594H37.8828ZM47.5391 5.68359H51.2539L62.668 11.6602V5.68359H66.3828V24H62.668V15.5977L51.2539 9.65625V24H47.5391V5.68359ZM71.0938 5.68359H74.832V24H71.0938V5.68359ZM80.4336 18.5508C81.0977 18.9258 81.7695 19.2656 82.4492 19.5703C83.1367 19.8672 83.8477 20.1211 84.582 20.332C85.3164 20.5352 86.0859 20.6914 86.8906 20.8008C87.7031 20.9102 88.5664 20.9648 89.4805 20.9648C90.582 20.9648 91.5195 20.8945 92.293 20.7539C93.0664 20.6055 93.6953 20.4062 94.1797 20.1562C94.6719 19.8984 95.0273 19.5938 95.2461 19.2422C95.4727 18.8906 95.5859 18.5078 95.5859 18.0938C95.5859 17.4297 95.3086 16.9062 94.7539 16.5234C94.1992 16.1328 93.3438 15.9375 92.1875 15.9375C91.6797 15.9375 91.1445 15.9727 90.582 16.043C90.0195 16.1055 89.4492 16.1758 88.8711 16.2539C88.3008 16.332 87.7344 16.4062 87.1719 16.4766C86.6172 16.5391 86.0938 16.5703 85.6016 16.5703C84.7812 16.5703 83.9922 16.4648 83.2344 16.2539C82.4844 16.043 81.8164 15.7266 81.2305 15.3047C80.6523 14.8828 80.1914 14.3555 79.8477 13.7227C79.5039 13.0898 79.332 12.3516 79.332 11.5078C79.332 11.0078 79.3984 10.5117 79.5312 10.0195C79.6719 9.52734 79.8906 9.05859 80.1875 8.61328C80.4922 8.16016 80.8828 7.74219 81.3594 7.35938C81.8359 6.96875 82.4102 6.63281 83.082 6.35156C83.7617 6.07031 84.543 5.85156 85.4258 5.69531C86.3164 5.53125 87.3281 5.44922 88.4609 5.44922C89.2812 5.44922 90.1055 5.49609 90.9336 5.58984C91.7617 5.67578 92.5664 5.80078 93.3477 5.96484C94.1367 6.12891 94.8945 6.32812 95.6211 6.5625C96.3477 6.78906 97.0234 7.04297 97.6484 7.32422L96.0195 10.3242C95.5039 10.0977 94.9492 9.89062 94.3555 9.70312C93.7617 9.50781 93.1406 9.33984 92.4922 9.19922C91.8438 9.05859 91.1719 8.94922 90.4766 8.87109C89.7891 8.78516 89.0859 8.74219 88.3672 8.74219C87.3438 8.74219 86.5 8.81641 85.8359 8.96484C85.1797 9.11328 84.6562 9.30469 84.2656 9.53906C83.875 9.76562 83.6016 10.0234 83.4453 10.3125C83.2969 10.5938 83.2227 10.875 83.2227 11.1562C83.2227 11.7031 83.4688 12.1523 83.9609 12.5039C84.4531 12.8477 85.2031 13.0195 86.2109 13.0195C86.6172 13.0195 87.082 12.9922 87.6055 12.9375C88.1367 12.875 88.6914 12.8086 89.2695 12.7383C89.8555 12.668 90.4492 12.6055 91.0508 12.5508C91.6602 12.4883 92.25 12.457 92.8203 12.457C93.8984 12.457 94.8516 12.5781 95.6797 12.8203C96.5156 13.0625 97.2148 13.4102 97.7773 13.8633C98.3398 14.3086 98.7656 14.8516 99.0547 15.4922C99.3438 16.125 99.4883 16.8359 99.4883 17.625C99.4883 18.6797 99.2422 19.6211 98.75 20.4492C98.2656 21.2695 97.5703 21.9648 96.6641 22.5352C95.7656 23.0977 94.6797 23.5273 93.4062 23.8242C92.1328 24.1133 90.7148 24.2578 89.1523 24.2578C88.1211 24.2578 87.1133 24.1914 86.1289 24.0586C85.1445 23.9336 84.1992 23.7539 83.293 23.5195C82.3945 23.2773 81.5352 22.9922 80.7148 22.6641C79.9023 22.3281 79.1484 21.9609 78.4531 21.5625L80.4336 18.5508ZM103.566 5.68359H107.281V10.4648H118.672V5.68359H122.398V24H118.672V13.6406H107.281V24H103.566V5.68359Z" fill="#8400FF"/>
<path d="M37.7188 35.6836H41.4336V45.1641L51.1016 35.6836H55.8594L46.8359 44.4258L55.8594 54H50.9141L44.1641 47.0156L41.4336 49.6523V54H37.7188V35.6836ZM57.6758 35.6836H61.3906V40.4648H72.7812V35.6836H76.5078V54H72.7812V43.6406H61.3906V54H57.6758V35.6836ZM87.957 35.6836H91.8945L100.754 54H96.8516L95.3867 50.918H84.6875L83.2695 54H79.3555L87.957 35.6836ZM93.9219 47.8594L89.9609 39.5391L86.1055 47.8594H93.9219ZM103.578 35.6836H107.293L118.707 41.6602V35.6836H122.422V54H118.707V45.5977L107.293 39.6562V54H103.578V35.6836Z" fill="white"/>
<path d="M132.604 5.70488H142.707V7.71387H134.895V10.6695H141.529V12.5557H134.895V17H132.604V5.70488ZM144.492 5.70488H146.783V11.927C146.783 12.4376 146.853 12.8929 146.992 13.2928C147.132 13.6878 147.339 14.0227 147.614 14.2973C147.893 14.5719 148.238 14.7814 148.647 14.926C149.057 15.0657 149.534 15.1355 150.078 15.1355C150.618 15.1355 151.092 15.0657 151.502 14.926C151.916 14.7814 152.261 14.5719 152.535 14.2973C152.815 14.0227 153.024 13.6878 153.164 13.2928C153.304 12.8929 153.373 12.4376 153.373 11.927V5.70488H155.664V12.2016C155.664 12.9435 155.539 13.618 155.288 14.225C155.038 14.832 154.674 15.3523 154.197 15.7859C153.72 16.2195 153.135 16.5544 152.441 16.7904C151.752 17.0265 150.965 17.1445 150.078 17.1445C149.192 17.1445 148.402 17.0265 147.708 16.7904C147.019 16.5544 146.436 16.2195 145.959 15.7859C145.482 15.3523 145.118 14.832 144.868 14.225C144.617 13.618 144.492 12.9435 144.492 12.2016V5.70488ZM158.461 5.70488H160.752V14.991H167.321V17H158.461V5.70488ZM169.546 5.70488H171.837V14.991H178.406V17H169.546V5.70488ZM133.132 31.6396C133.541 31.8709 133.956 32.0805 134.375 32.2684C134.799 32.4514 135.237 32.608 135.69 32.7381C136.143 32.8633 136.617 32.9597 137.114 33.0271C137.615 33.0946 138.147 33.1283 138.711 33.1283C139.39 33.1283 139.968 33.085 140.445 32.9982C140.922 32.9067 141.31 32.7839 141.609 32.6297C141.912 32.4707 142.131 32.2828 142.266 32.066C142.406 31.8492 142.476 31.6132 142.476 31.3578C142.476 30.9483 142.305 30.6255 141.963 30.3895C141.621 30.1486 141.093 30.0281 140.38 30.0281C140.067 30.0281 139.737 30.0498 139.39 30.0932C139.043 30.1317 138.691 30.1751 138.335 30.2232C137.983 30.2714 137.634 30.3172 137.287 30.3605C136.945 30.3991 136.622 30.4184 136.319 30.4184C135.813 30.4184 135.326 30.3533 134.859 30.2232C134.396 30.0932 133.985 29.898 133.623 29.6379C133.267 29.3777 132.982 29.0525 132.771 28.6623C132.559 28.2721 132.453 27.8168 132.453 27.2965C132.453 26.9882 132.493 26.6822 132.575 26.3787C132.662 26.0752 132.797 25.7861 132.98 25.5115C133.168 25.2321 133.409 24.9743 133.703 24.7383C133.997 24.4974 134.351 24.2902 134.765 24.1168C135.184 23.9434 135.666 23.8085 136.21 23.7121C136.76 23.6109 137.383 23.5604 138.082 23.5604C138.588 23.5604 139.096 23.5893 139.607 23.6471C140.118 23.7001 140.614 23.7771 141.096 23.8783C141.582 23.9795 142.049 24.1023 142.497 24.2469C142.946 24.3866 143.362 24.5432 143.748 24.7166L142.743 26.5666C142.425 26.4269 142.083 26.2992 141.717 26.1836C141.351 26.0632 140.968 25.9596 140.568 25.8729C140.168 25.7861 139.754 25.7187 139.325 25.6705C138.901 25.6175 138.467 25.591 138.024 25.591C137.393 25.591 136.873 25.6368 136.463 25.7283C136.059 25.8199 135.736 25.9379 135.495 26.0824C135.254 26.2221 135.085 26.3811 134.989 26.5594C134.898 26.7328 134.852 26.9062 134.852 27.0797C134.852 27.4169 135.004 27.6939 135.307 27.9107C135.611 28.1227 136.073 28.2287 136.695 28.2287C136.945 28.2287 137.232 28.2118 137.554 28.1781C137.882 28.1396 138.224 28.0986 138.581 28.0553C138.942 28.0119 139.308 27.9734 139.679 27.9396C140.055 27.9011 140.419 27.8818 140.77 27.8818C141.435 27.8818 142.023 27.9565 142.534 28.1059C143.049 28.2552 143.48 28.4696 143.827 28.749C144.174 29.0236 144.437 29.3585 144.615 29.7535C144.793 30.1437 144.882 30.5822 144.882 31.0687C144.882 31.7191 144.73 32.2997 144.427 32.8104C144.128 33.3162 143.699 33.745 143.141 34.0967C142.587 34.4436 141.917 34.7085 141.132 34.8916C140.346 35.0699 139.472 35.159 138.508 35.159C137.872 35.159 137.251 35.118 136.644 35.0361C136.037 34.959 135.454 34.8482 134.895 34.7037C134.341 34.5544 133.811 34.3785 133.305 34.1762C132.804 33.969 132.339 33.7426 131.911 33.4969L133.132 31.6396ZM150.808 25.7139H146.638V23.7049H157.269V25.7139H153.099V35H150.808V25.7139ZM163.57 23.7049H165.998L171.462 35H169.055L168.152 33.0994H161.554L160.679 35H158.266L163.57 23.7049ZM167.248 31.2133L164.806 26.0824L162.428 31.2133H167.248ZM172.531 29.2838C172.531 28.4792 172.683 27.7301 172.986 27.0363C173.29 26.3378 173.728 25.7331 174.302 25.2225C174.88 24.707 175.583 24.3023 176.412 24.0084C177.245 23.7145 178.187 23.5676 179.237 23.5676C180.157 23.5676 181.001 23.6615 181.767 23.8494C182.537 24.0325 183.253 24.3143 183.913 24.6949L182.858 26.4293C182.66 26.2992 182.431 26.1836 182.171 26.0824C181.916 25.9812 181.641 25.8969 181.347 25.8295C181.058 25.7572 180.757 25.7018 180.444 25.6633C180.136 25.6247 179.83 25.6055 179.526 25.6055C178.794 25.6055 178.141 25.697 177.568 25.8801C176.995 26.0583 176.51 26.3113 176.115 26.6389C175.725 26.9617 175.426 27.3495 175.219 27.8023C175.017 28.2504 174.916 28.7442 174.916 29.2838C174.916 29.8426 175.022 30.3557 175.234 30.823C175.446 31.2904 175.752 31.6951 176.152 32.0371C176.556 32.3743 177.048 32.6393 177.626 32.832C178.209 33.0199 178.866 33.1139 179.599 33.1139C179.931 33.1139 180.261 33.0898 180.589 33.0416C180.916 32.9934 181.232 32.9284 181.535 32.8465C181.844 32.7598 182.14 32.6586 182.424 32.543C182.708 32.4225 182.973 32.2924 183.219 32.1527L184.274 33.8871C183.658 34.2822 182.945 34.5929 182.135 34.8193C181.326 35.041 180.466 35.1518 179.555 35.1518C178.394 35.1518 177.375 35.0024 176.498 34.7037C175.622 34.4002 174.889 33.9859 174.302 33.4607C173.714 32.9308 173.271 32.3093 172.972 31.5963C172.678 30.8785 172.531 30.1076 172.531 29.2838ZM186.804 23.7049H189.094V29.5512L195.056 23.7049H197.99L192.426 29.0959L197.99 35H194.941L190.778 30.693L189.094 32.3189V35H186.804V23.7049Z" fill="white"/>
<path d="M132.604 42.7049H136.745C137.954 42.7049 139.005 42.835 139.896 43.0951C140.787 43.3553 141.524 43.7286 142.107 44.2152C142.695 44.697 143.131 45.2848 143.415 45.9785C143.704 46.6674 143.849 47.4431 143.849 48.3055C143.849 49.1245 143.707 49.8833 143.422 50.5818C143.138 51.2756 142.705 51.8778 142.122 52.3885C141.539 52.8943 140.802 53.2918 139.91 53.5809C139.019 53.8651 137.969 54.0072 136.76 54.0072L132.604 54V42.7049ZM137.309 52.0199C137.993 52.0199 138.593 51.9332 139.108 51.7598C139.624 51.5815 140.052 51.331 140.395 51.0082C140.741 50.6854 141.002 50.2952 141.175 49.8375C141.348 49.3798 141.435 48.8691 141.435 48.3055C141.435 47.7514 141.348 47.2528 141.175 46.8096C141.002 46.3615 140.741 45.9833 140.395 45.675C140.052 45.3618 139.624 45.121 139.108 44.9523C138.593 44.7837 137.993 44.6994 137.309 44.6994H134.895V52.0199H137.309ZM146.147 42.7049H155.765V44.7139H148.438V46.9686H154.927V48.8547H148.438V51.9982H155.917V54H146.147V42.7049ZM156.951 42.7049H159.487L163.035 51.3189L166.584 42.7049H169.12L164.17 54H161.901L156.951 42.7049ZM170.818 42.7049H180.437V44.7139H173.109V46.9686H179.599V48.8547H173.109V51.9982H180.589V54H170.818V42.7049ZM183.132 42.7049H185.423V51.991H191.992V54H183.132V42.7049ZM193.553 48.3199C193.553 47.4672 193.71 46.6867 194.023 45.9785C194.336 45.2703 194.774 44.6633 195.338 44.1574C195.907 43.6467 196.586 43.2517 197.376 42.9723C198.171 42.6928 199.05 42.5531 200.014 42.5531C200.972 42.5531 201.849 42.6928 202.644 42.9723C203.439 43.2517 204.118 43.6467 204.682 44.1574C205.251 44.6633 205.691 45.2703 206.004 45.9785C206.318 46.6867 206.474 47.4672 206.474 48.3199C206.474 49.1775 206.318 49.9652 206.004 50.683C205.691 51.396 205.251 52.0103 204.682 52.5258C204.118 53.0413 203.439 53.4436 202.644 53.7326C201.849 54.0169 200.972 54.159 200.014 54.159C199.05 54.159 198.171 54.0169 197.376 53.7326C196.586 53.4436 195.907 53.0413 195.338 52.5258C194.774 52.0103 194.336 51.396 194.023 50.683C193.71 49.9652 193.553 49.1775 193.553 48.3199ZM195.844 48.3199C195.844 48.9029 195.948 49.428 196.155 49.8953C196.367 50.3626 196.658 50.7625 197.029 51.0949C197.405 51.4225 197.846 51.6755 198.352 51.8537C198.862 52.032 199.416 52.1211 200.014 52.1211C200.611 52.1211 201.163 52.032 201.669 51.8537C202.179 51.6755 202.62 51.4225 202.991 51.0949C203.362 50.7625 203.653 50.3626 203.865 49.8953C204.077 49.428 204.183 48.9029 204.183 48.3199C204.183 47.737 204.077 47.2143 203.865 46.7518C203.653 46.2893 203.362 45.899 202.991 45.5811C202.62 45.2583 202.179 45.0126 201.669 44.8439C201.163 44.6753 200.611 44.591 200.014 44.591C199.416 44.591 198.862 44.6753 198.352 44.8439C197.846 45.0126 197.405 45.2583 197.029 45.5811C196.658 45.899 196.367 46.2893 196.155 46.7518C195.948 47.2143 195.844 47.737 195.844 48.3199ZM209.018 42.7049H214.973C215.84 42.7049 216.591 42.7988 217.227 42.9867C217.863 43.1746 218.391 43.4468 218.81 43.8033C219.229 44.155 219.54 44.5862 219.742 45.0969C219.949 45.6076 220.053 46.1833 220.053 46.824C220.053 47.4262 219.952 47.9827 219.749 48.4934C219.547 49.004 219.236 49.4473 218.817 49.823C218.403 50.194 217.878 50.4855 217.242 50.6975C216.606 50.9046 215.854 51.0082 214.987 51.0082L211.309 51.001V54H209.018V42.7049ZM215.03 49.0209C215.464 49.0209 215.842 48.9703 216.165 48.8691C216.493 48.7632 216.765 48.6162 216.982 48.4283C217.203 48.2356 217.367 48.0044 217.473 47.7346C217.584 47.46 217.639 47.1564 217.639 46.824C217.639 46.1544 217.42 45.634 216.982 45.2631C216.548 44.8873 215.898 44.6994 215.03 44.6994H211.309V49.0209H215.03ZM222.561 42.7049H232.179V44.7139H224.851V46.9686H231.341V48.8547H224.851V51.9982H232.331V54H222.561V42.7049ZM234.875 42.7049H240.62C241.487 42.7049 242.238 42.7964 242.874 42.9795C243.51 43.1577 244.038 43.4179 244.457 43.76C244.876 44.102 245.187 44.5187 245.389 45.0102C245.596 45.5016 245.7 46.058 245.7 46.6795C245.7 47.0986 245.649 47.4985 245.548 47.8791C245.447 48.2549 245.29 48.6018 245.079 48.9197C244.871 49.2377 244.609 49.5219 244.291 49.7725C243.973 50.0182 243.599 50.2229 243.171 50.3867L245.628 54H242.824L240.699 50.7914H240.634L237.165 50.7842V54H234.875V42.7049ZM240.678 48.8041C241.111 48.8041 241.489 48.7535 241.812 48.6523C242.14 48.5512 242.412 48.409 242.629 48.226C242.85 48.0429 243.014 47.8213 243.12 47.5611C243.231 47.2962 243.286 47.0023 243.286 46.6795C243.286 46.0484 243.07 45.5618 242.636 45.2197C242.202 44.8729 241.55 44.6994 240.678 44.6994H237.165V48.8041H240.678Z" fill="#8400FF"/>
</svg>
